<svg width="1920" height="960" viewBox="0 0 1920 960" fill="none" xmlns="http://www.w3.org/2000/svg">
<rect width="1920" height="960" fill="#E5E5E5"/>
<rect width="1920" height="960" fill="url(#paint0_linear)"/>
<path d="M525.83 555.935C466.95 574.243 371.85 555.532 371.005 473.995C370.161 392.457 471.656 441.028 471.656 441.028L525.83 555.935Z" fill="#FFC250"/>
<path d="M399.633 428.247C440.727 421.206 471.937 475.66 506.467 532.463C540.997 589.266 630.914 611.782 688.366 564.013C745.819 516.244 770.135 432.582 699.592 382.679C629.05 332.776 585.015 446.072 524.285 449.186C463.558 452.3 463.114 407.159 399.633 428.247Z" fill="#FFD064"/>
<circle cx="693.641" cy="476.534" r="18.0349" fill="#FFE19D"/>
<circle cx="659.074" cy="490.06" r="13.5262" fill="#FFE19D"/>
<circle cx="683.121" cy="508.094" r="10.5204" fill="#FFE19D"/>
<path d="M834.946 555.5V401.5H896.766C912.753 401.5 924.926 405.24 933.286 412.72C941.793 420.053 946.046 429.513 946.046 441.1C946.046 450.78 943.406 458.553 938.126 464.42C932.993 470.14 926.686 474.027 919.206 476.08C928.006 477.84 935.266 482.24 940.986 489.28C946.706 496.173 949.566 504.24 949.566 513.48C949.566 525.653 945.166 535.7 936.366 543.62C927.566 551.54 915.1 555.5 898.966 555.5H834.946ZM863.106 466.18H892.586C900.506 466.18 906.593 464.347 910.846 460.68C915.1 457.013 917.226 451.807 917.226 445.06C917.226 438.607 915.1 433.547 910.846 429.88C906.74 426.067 900.506 424.16 892.146 424.16H863.106V466.18ZM863.106 532.62H894.566C902.926 532.62 909.38 530.713 913.926 526.9C918.62 522.94 920.966 517.44 920.966 510.4C920.966 503.213 918.546 497.567 913.706 493.46C908.866 489.353 902.34 487.3 894.126 487.3H863.106V532.62ZM1001.9 558.14C992.509 558.14 984.809 556.673 978.796 553.74C972.782 550.66 968.309 546.627 965.376 541.64C962.442 536.653 960.976 531.153 960.976 525.14C960.976 515.02 964.936 506.807 972.856 500.5C980.776 494.193 992.656 491.04 1008.5 491.04H1036.22V488.4C1036.22 480.92 1034.09 475.42 1029.84 471.9C1025.58 468.38 1020.3 466.62 1014 466.62C1008.28 466.62 1003.29 468.013 999.036 470.8C994.782 473.44 992.142 477.4 991.116 482.68H963.616C964.349 474.76 966.989 467.867 971.536 462C976.229 456.133 982.242 451.66 989.576 448.58C996.909 445.353 1005.12 443.74 1014.22 443.74C1029.76 443.74 1042.01 447.627 1050.96 455.4C1059.9 463.173 1064.38 474.173 1064.38 488.4V555.5H1040.4L1037.76 537.9C1034.53 543.767 1029.98 548.607 1024.12 552.42C1018.4 556.233 1010.99 558.14 1001.9 558.14ZM1008.28 536.14C1016.34 536.14 1022.58 533.5 1026.98 528.22C1031.52 522.94 1034.38 516.413 1035.56 508.64H1011.58C1004.1 508.64 998.742 510.033 995.516 512.82C992.289 515.46 990.676 518.76 990.676 522.72C990.676 526.973 992.289 530.273 995.516 532.62C998.742 534.967 1003 536.14 1008.28 536.14ZM1129.56 555.5C1118.12 555.5 1108.96 552.713 1102.06 547.14C1095.17 541.567 1091.72 531.667 1091.72 517.44V469.92H1073.02V446.38H1091.72L1095.02 417.12H1119.88V446.38H1149.36V469.92H1119.88V517.66C1119.88 522.94 1120.98 526.607 1123.18 528.66C1125.53 530.567 1129.49 531.52 1135.06 531.52H1148.7V555.5H1129.56ZM1202.36 558.14C1192.98 558.14 1185.28 556.673 1179.26 553.74C1173.25 550.66 1168.78 546.627 1165.84 541.64C1162.91 536.653 1161.44 531.153 1161.44 525.14C1161.44 515.02 1165.4 506.807 1173.32 500.5C1181.24 494.193 1193.12 491.04 1208.96 491.04H1236.68V488.4C1236.68 480.92 1234.56 475.42 1230.3 471.9C1226.05 468.38 1220.77 466.62 1214.46 466.62C1208.74 466.62 1203.76 468.013 1199.5 470.8C1195.25 473.44 1192.61 477.4 1191.58 482.68H1164.08C1164.82 474.76 1167.46 467.867 1172 462C1176.7 456.133 1182.71 451.66 1190.04 448.58C1197.38 445.353 1205.59 443.74 1214.68 443.74C1230.23 443.74 1242.48 447.627 1251.42 455.4C1260.37 463.173 1264.84 474.173 1264.84 488.4V555.5H1240.86L1238.22 537.9C1235 543.767 1230.45 548.607 1224.58 552.42C1218.86 556.233 1211.46 558.14 1202.36 558.14ZM1208.74 536.14C1216.81 536.14 1223.04 533.5 1227.44 528.22C1231.99 522.94 1234.85 516.413 1236.02 508.64H1212.04C1204.56 508.64 1199.21 510.033 1195.98 512.82C1192.76 515.46 1191.14 518.76 1191.14 522.72C1191.14 526.973 1192.76 530.273 1195.98 532.62C1199.21 534.967 1203.46 536.14 1208.74 536.14ZM1347.59 558.14C1339.38 558.14 1332.19 556.6 1326.03 553.52C1319.87 550.44 1314.89 546.113 1311.07 540.54L1307.99 555.5H1282.91V397.1H1311.07V462C1314.59 457.16 1319.21 452.907 1324.93 449.24C1330.8 445.573 1338.35 443.74 1347.59 443.74C1357.86 443.74 1367.03 446.233 1375.09 451.22C1383.16 456.207 1389.54 463.027 1394.23 471.68C1398.93 480.333 1401.27 490.16 1401.27 501.16C1401.27 512.16 1398.93 521.987 1394.23 530.64C1389.54 539.147 1383.16 545.893 1375.09 550.88C1367.03 555.72 1357.86 558.14 1347.59 558.14ZM1341.65 533.5C1350.6 533.5 1358.01 530.493 1363.87 524.48C1369.74 518.467 1372.67 510.693 1372.67 501.16C1372.67 491.627 1369.74 483.78 1363.87 477.62C1358.01 471.46 1350.6 468.38 1341.65 468.38C1332.56 468.38 1325.08 471.46 1319.21 477.62C1313.49 483.633 1310.63 491.407 1310.63 500.94C1310.63 510.473 1313.49 518.32 1319.21 524.48C1325.08 530.493 1332.56 533.5 1341.65 533.5ZM1432.81 429.44C1427.68 429.44 1423.42 427.9 1420.05 424.82C1416.82 421.74 1415.21 417.853 1415.21 413.16C1415.21 408.467 1416.82 404.653 1420.05 401.72C1423.42 398.64 1427.68 397.1 1432.81 397.1C1437.94 397.1 1442.12 398.64 1445.35 401.72C1448.72 404.653 1450.41 408.467 1450.41 413.16C1450.41 417.853 1448.72 421.74 1445.35 424.82C1442.12 427.9 1437.94 429.44 1432.81 429.44ZM1418.73 555.5V446.38H1446.89V555.5H1418.73ZM1516.1 555.5C1504.66 555.5 1495.5 552.713 1488.6 547.14C1481.71 541.567 1478.26 531.667 1478.26 517.44V469.92H1459.56V446.38H1478.26L1481.56 417.12H1506.42V446.38H1535.9V469.92H1506.42V517.66C1506.42 522.94 1507.52 526.607 1509.72 528.66C1512.07 530.567 1516.03 531.52 1521.6 531.52H1535.24V555.5H1516.1Z" fill="white"/>
<defs>
<linearGradient id="paint0_linear" x1="1920" y1="90.9091" x2="1580.93" y2="1376.85" gradientUnits="userSpaceOnUse">
<stop offset="0.111868" stop-color="#201E1C"/>
<stop offset="1" stop-color="#F7931A"/>
</linearGradient>
</defs>
</svg>
